<svg preserveAspectRatio="none" width="100%" height="100%" overflow="visible" style="display: block;" viewBox="0 0 24 24" fill="none" xmlns="http://www.w3.org/2000/svg">
<g id="hearing_aid_left">
<mask id="mask0_0_7" style="mask-type:alpha" maskUnits="userSpaceOnUse" x="0" y="0" width="24" height="24">
<rect id="Bounding box" width="24" height="24" fill="var(--fill-0, #D9D9D9)"/>
</mask>
<g mask="url(#mask0_0_7)">
<path id="hearing_aid_left_2" d="M17 22C16.05 22 15.2167 21.7167 14.5 21.15C13.7833 20.5833 13.2667 19.8333 12.95 18.9C12.6667 18.0667 12.3625 17.45 12.0375 17.05C11.7125 16.65 11.175 16.1833 10.425 15.65C9.30833 14.85 8.45833 13.8542 7.875 12.6625C7.29167 11.4708 7 10.25 7 9C7 7.03333 7.675 5.375 9.025 4.025C10.375 2.675 12.0333 2 14 2C15.9667 2 17.625 2.675 18.975 4.025C20.325 5.375 21 7.03333 21 9H19C19 7.58333 18.5208 6.39583 17.5625 5.4375C16.6042 4.47917 15.4167 4 14 4C12.5833 4 11.3958 4.47917 10.4375 5.4375C9.47917 6.39583 9 7.58333 9 9C9 9.98333 9.23333 10.9292 9.7 11.8375C10.1667 12.7458 10.825 13.5 11.675 14.1C12.475 14.6667 13.1125 15.2125 13.5875 15.7375C14.0625 16.2625 14.4417 16.975 14.725 17.875C14.9083 18.4583 15.1875 18.9583 15.5625 19.375C15.9375 19.7917 16.4167 20 17 20C17.5333 20 18 19.8042 18.4 19.4125C18.8 19.0208 19 18.55 19 18C19 17.5667 18.9583 17.1375 18.875 16.7125C18.7917 16.2875 18.6583 15.9 18.475 15.55L16.775 16.9L14.275 12.5C13.2583 12.5833 12.375 12.2792 11.625 11.5875C10.875 10.8958 10.5 10.0333 10.5 9C10.5 8.03333 10.8417 7.20833 11.525 6.525C12.2083 5.84167 13.0333 5.5 14 5.5C15.0833 5.5 15.9708 5.90833 16.6625 6.725C17.3542 7.54167 17.6167 8.475 17.45 9.525L21.575 13.1L20.075 14.3C20.4083 14.8333 20.6458 15.4208 20.7875 16.0625C20.9292 16.7042 21 17.35 21 18C21 19.1 20.6083 20.0417 19.825 20.825C19.0417 21.6083 18.1 22 17 22ZM6.2 16.75C5.16667 15.7 4.375 14.5042 3.825 13.1625C3.275 11.8208 3 10.4333 3 9C3 7.53333 3.275 6.12917 3.825 4.7875C4.375 3.44583 5.16667 2.25 6.2 1.2L7.65 2.6C6.8 3.45 6.14583 4.425 5.6875 5.525C5.22917 6.625 5 7.78333 5 9C5 10.2 5.22917 11.3458 5.6875 12.4375C6.14583 13.5292 6.8 14.5 7.65 15.35L6.2 16.75ZM17.375 13.9L18.425 13.05L16.55 11.4L16.3625 11.5875C16.3042 11.6458 16.2417 11.7 16.175 11.75L17.375 13.9ZM15.0625 10.0625C15.3542 9.77083 15.5 9.41667 15.5 9C15.5 8.58333 15.3542 8.22917 15.0625 7.9375C14.7708 7.64583 14.4167 7.5 14 7.5C13.5833 7.5 13.2292 7.64583 12.9375 7.9375C12.6458 8.22917 12.5 8.58333 12.5 9C12.5 9.41667 12.6458 9.77083 12.9375 10.0625C13.2292 10.3542 13.5833 10.5 14 10.5C14.4167 10.5 14.7708 10.3542 15.0625 10.0625Z" fill="var(--fill-0, #172543)"/>
</g>
</g>
</svg>
