<svg preserveAspectRatio="none" width="100%" height="100%" overflow="visible" style="display: block;" viewBox="0 0 162.554 22.9154" fill="none" xmlns="http://www.w3.org/2000/svg">
<g id="Group 33">
<path id="Vector" d="M6.63131 12.3824V21.5761H9.82001V22.4076H1.10122e-05V21.5761H3.13158V1.34361H1.10122e-05V0.50994H10.1564C12.4501 0.50994 14.1767 1.07701 15.3383 2.20903C16.5 3.34104 17.0797 4.73544 17.0797 6.39009C17.0797 8.04474 16.4936 9.51107 15.3235 10.66C14.1513 11.809 12.2047 12.3824 9.47934 12.3824H6.62708H6.63131ZM6.63131 1.34361V11.5339H8.52718C9.51743 11.5339 10.3405 11.4408 10.9965 11.2567C11.6524 11.0726 12.2195 10.5817 12.6934 9.78614C13.1695 8.99056 13.4065 7.76121 13.4065 6.09598C13.4065 4.62541 13.197 3.54629 12.7823 2.85438C12.3655 2.16248 11.8725 1.73929 11.3054 1.5806C10.7362 1.4219 10.0316 1.34361 9.18946 1.34361H6.63131Z" fill="var(--fill-0, #F2F2F2)"/>
<path id="Vector_2" d="M23.3598 21.5761V1.34361H20.2578V0.50994H31.0617C32.4731 0.50994 33.6326 0.645359 34.5382 0.918313C35.4438 1.19127 36.2267 1.7541 36.8826 2.60894C37.5386 3.46377 37.8687 4.44556 37.8687 5.55642C37.8687 6.94023 37.3884 8.05955 36.4277 8.92073C35.4671 9.7798 33.8399 10.4294 31.5484 10.8631V10.9457C33.1946 11.3054 34.5445 12.0015 35.5983 13.0362C36.652 14.0709 37.1789 15.8229 37.1789 18.2943C37.1789 19.7098 37.327 20.6154 37.6274 21.0132C37.9258 21.411 38.3405 21.6099 38.8695 21.6099C39.2123 21.6099 39.6249 21.5337 40.1031 21.3814V22.1812C39.2504 22.5092 38.4273 22.6721 37.6338 22.6721C36.0172 22.6721 34.8746 22.1706 34.2081 21.1698C33.5416 20.169 33.2179 19.1893 33.2369 18.2308L33.2962 15.4547C33.2962 14.4856 33.019 13.5313 32.4667 12.5876C31.9123 11.646 30.6555 11.1742 28.6961 11.1742H26.8595V21.5761H29.9615V22.4076H20.26V21.5761H23.3619H23.3598ZM26.8595 1.34361V10.4061H29.5044C30.6407 10.4061 31.5082 10.3215 32.107 10.1522C32.7037 9.98293 33.1819 9.54281 33.5395 8.82975C33.8971 8.11668 34.0769 6.98255 34.0769 5.42523C34.0769 4.15144 33.895 3.22044 33.5331 2.63221C33.1713 2.04398 32.7312 1.68216 32.217 1.54674C31.7029 1.41132 31.0279 1.34361 30.1963 1.34361H26.8595Z" fill="var(--fill-0, #F2F2F2)"/>
<path id="Vector_3" d="M51.2011 22.9154C48.6535 22.9154 46.491 21.7284 44.7116 19.3543C42.9321 16.9803 42.0434 14.4454 42.0434 11.7434C42.0434 8.49966 42.9765 5.73203 44.8427 3.43837C46.709 1.14683 48.8778 0 51.3471 0C53.6704 0 55.7524 1.16587 57.5954 3.4955C59.4384 5.82514 60.3588 8.47004 60.3588 11.4323C60.3588 14.3946 59.4341 17.1559 57.5869 19.458C55.7397 21.7601 53.6111 22.9112 51.199 22.9112M51.2603 0.835789C50.1833 0.835789 49.2142 1.11086 48.3573 1.661C47.5003 2.21114 46.9163 3.16542 46.6074 4.52807C46.2985 5.88861 46.144 8.26268 46.144 11.6482C46.144 13.9884 46.2329 15.8567 46.4085 17.249C46.5841 18.6434 47.0327 19.7966 47.7543 20.7107C48.4737 21.6247 49.6036 22.0818 51.1418 22.0818C52.0834 22.0818 53.025 21.8046 53.9708 21.2481C54.9167 20.6937 55.5345 19.6019 55.8223 17.9748C56.1122 16.3476 56.256 13.8466 56.256 10.4717C56.256 7.41208 56.0762 5.30039 55.7186 4.13663C55.361 2.97076 54.7876 2.13073 53.9983 1.61445C53.2091 1.09816 52.295 0.837905 51.2561 0.837905" fill="var(--fill-0, #F2F2F2)"/>
<path id="Vector_4" d="M75.4115 0.26449L75.5004 5.94786H74.8084C73.8288 2.54122 72.0979 0.835789 69.6202 0.835789C68.247 0.835789 67.1827 1.25897 66.423 2.10111C65.6634 2.94536 65.2847 3.81924 65.2847 4.72274C65.2847 5.56064 65.5999 6.27371 66.2326 6.86194C66.8653 7.45016 68.0185 7.90509 69.6943 8.22671C71.3701 8.54833 72.646 8.93977 73.5241 9.40316C74.4001 9.86655 75.1406 10.6367 75.7437 11.7137C76.3467 12.7908 76.6472 14.0265 76.6472 15.4208C76.6472 17.5664 76.0166 19.3501 74.7577 20.7762C73.4987 22.2024 71.9371 22.9154 70.0751 22.9154C68.5559 22.9154 67.043 22.2891 65.5322 21.0365L64.1505 22.4076H63.6364V16.2841H64.269C64.8467 18.2117 65.655 19.659 66.6939 20.6281C67.7328 21.5972 68.8691 22.0818 70.1048 22.0818C71.3405 22.0818 72.4534 21.6332 73.4775 20.7339C74.5016 19.8368 75.0137 18.7005 75.0137 17.3294C75.0137 16.1762 74.6582 15.2029 73.9473 14.4137C73.2363 13.6244 72.0853 13.0806 70.492 12.7802C68.8987 12.4818 67.6778 12.1327 66.8251 11.7349C65.9724 11.3371 65.2424 10.6473 64.6351 9.6613C64.0278 8.67528 63.7231 7.58558 63.7231 6.38797C63.7231 4.73332 64.2521 3.2564 65.3101 1.95511C66.368 0.65382 67.8047 0.00423151 69.6181 0.00423151C71.1373 0.00423151 72.5529 0.537444 73.8669 1.60387C74.2287 1.223 74.544 0.776543 74.8084 0.26449H75.4115Z" fill="var(--fill-0, #F2F2F2)"/>
<path id="Vector_5" d="M86.2746 12.3824V21.5761H89.4654V22.4076H79.6454V21.5761H82.777V1.34361H79.6454V0.50994H89.8019C92.0955 0.50994 93.8221 1.07701 94.9838 2.20903C96.1454 3.34104 96.7252 4.73544 96.7252 6.39009C96.7252 8.04474 96.1391 9.51107 94.969 10.66C93.7967 11.809 91.8501 12.3824 89.1248 12.3824H86.2725H86.2746ZM86.2746 1.34361V11.5339H88.1705C89.1607 11.5339 89.9838 11.4408 90.6398 11.2567C91.2957 11.0726 91.8628 10.5817 92.3367 9.78614C92.8128 8.99056 93.0498 7.76121 93.0498 6.09598C93.0498 4.62541 92.8424 3.54629 92.4256 2.85438C92.0088 2.16248 91.5158 1.73929 90.9487 1.5806C90.3795 1.4219 89.6749 1.34361 88.8328 1.34361H86.2746Z" fill="var(--fill-0, #F2F2F2)"/>
<path id="Vector_6" d="M106.162 1.34361V10.7341H107.942C108.568 10.7341 109.101 10.6664 109.537 10.5288C109.973 10.3934 110.364 10.0252 110.714 9.42644C111.061 8.82763 111.259 7.89239 111.308 6.61861H112.072V15.8948H111.308C111.23 14.1322 110.923 12.9685 110.39 12.4078C109.854 11.8471 109.04 11.5656 107.942 11.5656H106.162V21.5761H110.176C112.449 21.5761 114.025 21.045 114.901 19.9828C115.777 18.9206 116.3 17.285 116.467 15.076H117.216L117.025 22.4076H99.5478V21.5761H102.679V1.34361H99.5478V0.50994H116.306L116.644 6.35623H115.895C115.642 4.58309 115.117 3.30296 114.323 2.51795C113.53 1.73506 112.207 1.3415 110.354 1.3415H106.164L106.162 1.34361Z" fill="var(--fill-0, #F2F2F2)"/>
<path id="Vector_7" d="M124.023 21.5761V1.34361H120.921V0.50994H131.725C133.136 0.50994 134.295 0.645359 135.201 0.918313C136.107 1.19127 136.89 1.7541 137.546 2.60894C138.201 3.46377 138.532 4.44556 138.532 5.55642C138.532 6.94023 138.051 8.05955 137.091 8.92073C136.13 9.7798 134.503 10.4294 132.211 10.8631V10.9457C133.857 11.3054 135.207 12.0015 136.261 13.0362C137.315 14.0709 137.842 15.8229 137.842 18.2943C137.842 19.7098 137.99 20.6154 138.29 21.0132C138.589 21.411 139.003 21.6099 139.532 21.6099C139.875 21.6099 140.288 21.5337 140.768 21.3814V22.1812C139.915 22.5092 139.092 22.6721 138.299 22.6721C136.682 22.6721 135.54 22.1706 134.873 21.1698C134.207 20.169 133.883 19.1893 133.902 18.2308L133.961 15.4547C133.961 14.4856 133.684 13.5313 133.132 12.5876C132.577 11.646 131.321 11.1742 129.361 11.1742H127.525V21.5761H130.626V22.4076H120.925V21.5761H124.027H124.023ZM127.522 1.34361V10.4061H130.167C131.304 10.4061 132.171 10.3215 132.77 10.1522C133.367 9.98293 133.845 9.54281 134.202 8.82975C134.56 8.11668 134.74 6.98255 134.74 5.42523C134.74 4.15144 134.558 3.22044 134.196 2.63221C133.832 2.04398 133.394 1.68216 132.88 1.54674C132.366 1.41132 131.691 1.34361 130.859 1.34361H127.522Z" fill="var(--fill-0, #F2F2F2)"/>
<path id="Vector_8" d="M154.422 15.5838H148.159L146.145 21.5761H149.79V22.4076H142.647V21.5761H145.366L152.556 0.00423151H153.013L159.907 21.5761H162.554V22.4076H153.161V21.5761H156.35L154.424 15.5838H154.422ZM148.438 14.7501H154.156L151.377 5.98171H151.318L148.436 14.7501H148.438Z" fill="var(--fill-0, #F2F2F2)"/>
</g>
</svg>
