<svg preserveAspectRatio="none" width="100%" height="100%" overflow="visible" style="display: block;" viewBox="0 0 18.1737 6.70114" fill="none" xmlns="http://www.w3.org/2000/svg">
<g id="Group 35">
<path id="Vector" d="M0.00423784 5.79553L0.493015 5.15229C0.914084 5.54585 1.49808 5.87805 2.2577 5.87805C3.08503 5.87805 3.69864 5.47391 3.69864 4.81797C3.69864 4.10702 3.11041 3.63729 1.48115 3.63729V2.89883C2.92844 2.89883 3.4807 2.42063 3.4807 1.7922C3.4807 1.22302 2.99192 0.867542 2.26828 0.867542C1.69275 0.867542 1.17435 1.12145 0.749047 1.48751L0.228525 0.867542C0.782897 0.393576 1.48327 0.0613765 2.30636 0.0613765C3.5611 0.0613765 4.48788 0.662299 4.48788 1.72026C4.48788 2.46295 3.9462 2.94961 3.15907 3.21833V3.25853C3.99909 3.44685 4.70371 3.99699 4.70371 4.86664C4.70371 6.01558 3.62458 6.70114 2.32963 6.70114C1.22724 6.70114 0.4782 6.28642 1.86259e-06 5.79764L0.00423784 5.79553Z" fill="var(--fill-0, #F2F2F2)"/>
<path id="Vector_2" d="M7.05451 0.00212286H9.12811C10.5754 0.00212286 11.5995 0.499365 11.5995 1.98263C11.5995 3.46589 10.5585 4.06681 9.12811 4.06681H8.06169V6.5763H7.05451V7.29508e-06V0.00212286ZM9.03289 3.25853C10.0909 3.25853 10.6008 2.85227 10.6008 1.98474C10.6008 1.11721 10.076 0.814637 9.03289 0.814637H8.06381V3.26064H9.03289V3.25853Z" fill="var(--fill-0, #F2F2F2)"/>
<path id="Vector_3" d="M14.0074 0.00212918H15.0083V5.72782H18.1737V6.57842H14.0096V0.00212918H14.0074Z" fill="var(--fill-0, #F2F2F2)"/>
</g>
</svg>
