<svg preserveAspectRatio="none" width="100%" height="100%" overflow="visible" style="display: block;" viewBox="0 0 25.5286 22.9371" fill="none" xmlns="http://www.w3.org/2000/svg">
<g id="Group 34">
<path id="Vector" d="M25.5265 11.4667C25.5265 11.4667 25.5265 11.4625 25.5265 11.4604C25.5265 11.4202 25.5244 11.3778 25.5201 11.3376C25.5201 11.3207 25.5159 11.3059 25.5138 11.289C25.5117 11.2699 25.5096 11.253 25.5053 11.234C25.5053 11.2276 25.5032 11.2192 25.5011 11.2128C25.4969 11.1938 25.4926 11.1747 25.4884 11.1578C25.4821 11.1345 25.4778 11.1134 25.4715 11.0901C25.4651 11.0732 25.4588 11.0562 25.4524 11.0372C25.444 11.0139 25.4376 10.9927 25.427 10.9695C25.4207 10.9547 25.4122 10.9398 25.4059 10.925C25.3953 10.9018 25.3847 10.8785 25.372 10.8552C25.3657 10.8425 25.3572 10.8298 25.3488 10.8171C25.3339 10.7938 25.3212 10.7706 25.3064 10.7473C25.298 10.7346 25.2895 10.724 25.2789 10.7113C25.262 10.6902 25.2472 10.6669 25.2303 10.6457C25.2176 10.6309 25.2028 10.6161 25.1901 10.6013C25.1752 10.5844 25.1626 10.5674 25.1456 10.5526L14.9744 0.379279C14.4687 -0.126426 13.6498 -0.126426 13.1441 0.379279C12.6384 0.884985 12.6384 1.70385 13.1441 2.20955L21.1084 10.1739H11.4916V8.87894H14.0582C14.7734 8.87894 15.3531 8.29918 15.3531 7.584C15.3531 6.86881 14.7734 6.28905 14.0582 6.28905H11.4916V1.29547C11.4937 0.580292 10.9139 0.000529018 10.1987 0.000529018C9.48357 0.000529018 8.9038 0.580292 8.9038 1.29547V6.28905H7.60886V4.54976C7.60886 3.83458 7.02909 3.25482 6.31391 3.25482C5.59873 3.25482 5.01897 3.83458 5.01897 4.54976V6.28905H3.88695C3.17177 6.28905 2.59201 6.86881 2.59201 7.584C2.59201 8.29918 3.17177 8.87894 3.88695 8.87894H6.3118H8.89957V10.1739H1.29494C0.579763 10.1739 0 10.7536 0 11.4688C0 12.184 0.579763 12.7638 1.29494 12.7638H8.89957V14.0587H6.3118H3.88695C3.17177 14.0587 2.59201 14.6385 2.59201 15.3537C2.59201 16.0688 3.17177 16.6486 3.88695 16.6486H5.01897V18.3879C5.01897 19.1031 5.59873 19.6828 6.31391 19.6828C7.02909 19.6828 7.60886 19.1031 7.60886 18.3879V16.6486H8.9038V21.6422C8.9038 22.3574 9.48357 22.9371 10.1987 22.9371C10.9139 22.9371 11.4937 22.3574 11.4937 21.6422V16.6486H14.0603C14.7755 16.6486 15.3553 16.0688 15.3553 15.3537C15.3553 14.6385 14.7755 14.0587 14.0603 14.0587H11.4937V12.7638H21.1084L13.1462 20.726C12.6405 21.2317 12.6405 22.0506 13.1462 22.5563C13.6519 23.062 14.4708 23.062 14.9765 22.5563L25.1414 12.3914C25.1752 12.3575 25.207 12.3237 25.2366 12.2856C25.2366 12.2835 25.2408 12.2813 25.2408 12.2792C25.2662 12.2496 25.2895 12.2179 25.3107 12.184C25.317 12.1734 25.3234 12.1629 25.3318 12.1502C25.3466 12.1248 25.3636 12.1015 25.3763 12.074C25.3826 12.0613 25.389 12.0465 25.3953 12.0317C25.408 12.0084 25.4186 11.983 25.4292 11.9597C25.4355 11.9449 25.4397 11.9301 25.4461 11.9153C25.4545 11.8899 25.4651 11.8666 25.4715 11.8412C25.4757 11.8264 25.4799 11.8095 25.4842 11.7947C25.4905 11.7693 25.4969 11.746 25.5032 11.7206C25.5074 11.7016 25.5096 11.6825 25.5117 11.6614C25.5159 11.6402 25.518 11.6169 25.5223 11.5958C25.5265 11.5556 25.5286 11.5154 25.5286 11.4773C25.5286 11.4752 25.5286 11.4731 25.5286 11.4688L25.5265 11.4667Z" fill="var(--fill-0, #F2F2F2)"/>
</g>
</svg>
