<svg preserveAspectRatio="none" width="100%" height="100%" overflow="visible" style="display: block;" viewBox="0 0 24.685 24.685" fill="none" xmlns="http://www.w3.org/2000/svg">
<g id="facebook-brands-solid-full 1">
<path id="Vector" d="M22.2165 12.3425C22.2165 6.88865 17.7963 2.4685 12.3425 2.4685C6.88865 2.4685 2.4685 6.88865 2.4685 12.3425C2.4685 16.9709 5.65826 20.8588 9.95885 21.9272V15.3587H7.92234V12.3425H9.95885V11.0427C9.95885 7.6832 11.4785 6.12496 14.7801 6.12496C15.405 6.12496 16.4849 6.24839 16.9285 6.37181V9.10259C16.6971 9.07945 16.2921 9.06402 15.7868 9.06402C14.1669 9.06402 13.542 9.67728 13.542 11.2702V12.3425H16.7665L16.2111 15.3587H13.5382V22.1432C18.4289 21.5531 22.2165 17.3913 22.2165 12.3425Z" fill="var(--fill-0, #F2F2F2)"/>
</g>
</svg>
