<svg preserveAspectRatio="none" width="100%" height="100%" overflow="visible" style="display: block;" viewBox="0 0 30.5706 30.5706" fill="none" xmlns="http://www.w3.org/2000/svg">
<g id="lightbulb_2">
<mask id="mask0_0_13" style="mask-type:alpha" maskUnits="userSpaceOnUse" x="0" y="0" width="31" height="31">
<rect id="Bounding box" width="30.5706" height="30.5706" fill="var(--fill-0, #D9D9D9)"/>
</mask>
<g mask="url(#mask0_0_13)">
<path id="lightbulb_2_2" d="M13.2033 22.4382C12.6333 22.4382 12.1478 22.2377 11.7468 21.8367C11.346 21.4359 11.1455 20.9504 11.1455 20.3804V17.9064C10.0497 17.1927 9.19189 16.27 8.5722 15.1382C7.95251 14.0067 7.64266 12.7901 7.64266 11.4885C7.64266 9.36385 8.38527 7.55488 9.8705 6.06158C11.3557 4.56808 13.1607 3.82133 15.2853 3.82133C17.41 3.82133 19.2149 4.56394 20.7001 6.04917C22.1854 7.53439 22.928 9.33933 22.928 11.464C22.928 12.7819 22.6181 14.0055 21.9984 15.1347C21.3788 16.2639 20.521 17.1878 19.4251 17.9064V20.3804C19.4251 20.9504 19.2247 21.4359 18.8239 21.8367C18.4228 22.2377 17.9373 22.4382 17.3673 22.4382H13.2033ZM13.2033 21.1644H17.3673C17.596 21.1644 17.7838 21.0909 17.931 20.9438C18.0779 20.7968 18.1513 20.6091 18.1513 20.3804V17.2304L18.9156 16.6865C19.7697 16.0757 20.4397 15.3127 20.9256 14.3975C21.4113 13.4821 21.6542 12.5042 21.6542 11.464C21.6542 9.70193 21.0332 8.19994 19.7913 6.95801C18.5494 5.71607 17.0474 5.09511 15.2853 5.09511C13.5233 5.09511 12.0213 5.71607 10.7793 6.95801C9.5374 8.19994 8.91644 9.70193 8.91644 11.464C8.91644 12.5042 9.1593 13.4821 9.64504 14.3975C10.131 15.3127 10.801 16.0757 11.6551 16.6865L12.4193 17.2304V20.3804C12.4193 20.6091 12.4928 20.7968 12.6397 20.9438C12.7868 21.0909 12.9747 21.1644 13.2033 21.1644ZM12.9581 26.7493C12.7768 26.7493 12.6254 26.6885 12.5037 26.5668C12.3821 26.4452 12.3212 26.2937 12.3212 26.1124V25.4755H18.2494V26.1124C18.2494 26.2937 18.1886 26.4452 18.0669 26.5668C17.9453 26.6885 17.7938 26.7493 17.6125 26.7493H12.9581Z" fill="var(--fill-0, #1C1B1F)"/>
</g>
</g>
</svg>
