<svg preserveAspectRatio="none" width="100%" height="100%" overflow="visible" style="display: block;" viewBox="0 0 30.5706 30.5706" fill="none" xmlns="http://www.w3.org/2000/svg">
<g id="headphones">
<mask id="mask0_0_19" style="mask-type:alpha" maskUnits="userSpaceOnUse" x="0" y="0" width="31" height="31">
<rect id="Bounding box" width="30.5706" height="30.5706" fill="var(--fill-0, #D9D9D9)"/>
</mask>
<g mask="url(#mask0_0_19)">
<path id="headphones_2" d="M10.2883 25.4755H7.15289C6.56653 25.4755 6.07698 25.2792 5.68423 24.8864C5.29148 24.4937 5.09511 24.0041 5.09511 23.4177V15.2853C5.09511 13.8727 5.3609 12.5487 5.89249 11.3134C6.42408 10.078 7.15162 8.9986 8.07511 8.07511C8.9986 7.15162 10.078 6.42408 11.3134 5.89249C12.5487 5.3609 13.8727 5.09511 15.2853 5.09511C16.6979 5.09511 18.0219 5.3609 19.2573 5.89249C20.4926 6.42408 21.572 7.15162 22.4955 8.07511C23.419 8.9986 24.1466 10.078 24.6782 11.3134C25.2097 12.5487 25.4755 13.8727 25.4755 15.2853V23.4177C25.4755 24.0041 25.2792 24.4937 24.8864 24.8864C24.4937 25.2792 24.0041 25.4755 23.4177 25.4755H20.2823V17.637H24.2018V15.2853C24.2018 12.8015 23.3367 10.6944 21.6064 8.9642C19.8762 7.23399 17.7692 6.36888 15.2853 6.36888C12.8015 6.36888 10.6944 7.23399 8.9642 8.9642C7.23399 10.6944 6.36888 12.8015 6.36888 15.2853V17.637H10.2883V25.4755ZM9.01452 18.9108H6.36888V23.4177C6.36888 23.6139 6.45051 23.7936 6.61377 23.9569C6.77702 24.1201 6.95673 24.2018 7.15289 24.2018H9.01452V18.9108ZM21.5561 18.9108V24.2018H23.4177C23.6139 24.2018 23.7936 24.1201 23.9569 23.9569C24.1201 23.7936 24.2018 23.6139 24.2018 23.4177V18.9108H21.5561Z" fill="var(--fill-0, #1C1B1F)"/>
</g>
</g>
</svg>
