<svg preserveAspectRatio="none" width="100%" height="100%" overflow="visible" style="display: block;" viewBox="0 0 30.5706 30.5706" fill="none" xmlns="http://www.w3.org/2000/svg">
<g id="identity_platform">
<mask id="mask0_0_4" style="mask-type:alpha" maskUnits="userSpaceOnUse" x="0" y="0" width="31" height="31">
<rect id="Bounding box" width="30.5706" height="30.5706" fill="var(--fill-0, #D9D9D9)"/>
</mask>
<g mask="url(#mask0_0_4)">
<path id="identity_platform_2" d="M12.5738 14.8124C11.8339 14.0728 11.464 13.1689 11.464 12.1009C11.464 11.0328 11.8339 10.129 12.5738 9.38933C13.3134 8.64947 14.2173 8.27955 15.2853 8.27955C16.3534 8.27955 17.2572 8.64947 17.9969 9.38933C18.7367 10.129 19.1067 11.0328 19.1067 12.1009C19.1067 13.1689 18.7367 14.0728 17.9969 14.8124C17.2572 15.5523 16.3534 15.9222 15.2853 15.9222C14.2173 15.9222 13.3134 15.5523 12.5738 14.8124ZM17.0798 13.8953C17.5818 13.393 17.8329 12.7949 17.8329 12.1009C17.8329 11.4069 17.5818 10.8087 17.0798 10.3064C16.5775 9.80437 15.9793 9.55333 15.2853 9.55333C14.5913 9.55333 13.9932 9.80437 13.4909 10.3064C12.9888 10.8087 12.7378 11.4069 12.7378 12.1009C12.7378 12.7949 12.9888 13.393 13.4909 13.8953C13.9932 14.3974 14.5913 14.6484 15.2853 14.6484C15.9793 14.6484 16.5775 14.3974 17.0798 13.8953ZM15.2853 27.1658L5.09511 20.9438V9.62689L15.2853 3.4048L25.4755 9.62689V20.9438L15.2853 27.1658ZM15.2853 25.6984L20.5788 22.4576C19.7753 21.9938 18.9265 21.6378 18.0325 21.3896C17.1383 21.1414 16.2226 21.0173 15.2853 21.0173C14.348 21.0173 13.4323 21.1414 12.5381 21.3896C11.6441 21.6378 10.7954 21.9938 9.99182 22.4576L15.2853 25.6984ZM8.76454 21.6959C9.74429 21.0883 10.7861 20.6111 11.8901 20.2642C12.994 19.9171 14.1258 19.7435 15.2853 19.7435C16.4449 19.7435 17.5766 19.9171 18.6806 20.2642C19.7845 20.6111 20.8264 21.0883 21.8061 21.6959L24.2018 20.2531V10.3494L15.2853 4.90404L6.36888 10.3494V20.2531L8.76454 21.6959Z" fill="var(--fill-0, #1C1B1F)"/>
</g>
</g>
</svg>
