<svg preserveAspectRatio="none" width="100%" height="100%" overflow="visible" style="display: block;" viewBox="0 0 30.5706 30.5706" fill="none" xmlns="http://www.w3.org/2000/svg">
<g id="approval_delegation">
<mask id="mask0_0_16" style="mask-type:alpha" maskUnits="userSpaceOnUse" x="0" y="0" width="31" height="31">
<rect id="Bounding box" width="30.5706" height="30.5706" fill="var(--fill-0, #D9D9D9)"/>
</mask>
<g mask="url(#mask0_0_16)">
<path id="approval_delegation_2" d="M17.2231 14.0752L12.7158 9.56798L13.6246 8.69098L17.2231 12.2894L24.4517 5.09256L25.3284 5.96956L17.2231 14.0752ZM8.91644 23.7607L18.5532 26.5729L26.1809 24.2164C26.1565 23.8294 26.0394 23.5505 25.8296 23.3799C25.6197 23.2092 25.3873 23.1238 25.1326 23.1238H19.092C18.5515 23.1238 18.0624 23.1026 17.6246 23.0601C17.1871 23.0177 16.7388 22.9165 16.2798 22.7567L13.4899 21.8427L13.9208 20.5836L16.5002 21.517C16.9101 21.6721 17.3756 21.7652 17.8966 21.7962C18.4175 21.8272 19.1312 21.8452 20.0375 21.85C20.0375 21.4533 19.9644 21.1324 19.8184 20.8874C19.6721 20.6424 19.4627 20.4718 19.1901 20.3757L11.8608 17.6858C11.8117 17.6696 11.7668 17.6574 11.7261 17.6491C11.6853 17.6411 11.6404 17.637 11.5914 17.637H8.91644V23.7607ZM3.82133 26.7493V16.3633H11.5668C11.6828 16.3633 11.8028 16.375 11.927 16.3986C12.051 16.4224 12.1686 16.4555 12.2798 16.498L19.6407 19.1949C20.0963 19.3679 20.4886 19.679 20.8177 20.1282C21.1467 20.5772 21.3112 21.1512 21.3112 21.85H25.1326C25.9 21.85 26.488 22.0902 26.8964 22.5704C27.3047 23.0504 27.5088 23.6594 27.5088 24.3976V25.1816L18.6169 27.925L8.91644 25.0982V26.7493H3.82133ZM5.09511 25.4755H7.64266V17.637H5.09511V25.4755Z" fill="var(--fill-0, #1C1B1F)"/>
</g>
</g>
</svg>
