<svg preserveAspectRatio="none" width="100%" height="100%" overflow="visible" style="display: block;" viewBox="0 0 30.5706 30.5706" fill="none" xmlns="http://www.w3.org/2000/svg">
<g id="handshake">
<mask id="mask0_0_7" style="mask-type:alpha" maskUnits="userSpaceOnUse" x="0" y="0" width="31" height="31">
<rect id="Bounding box" width="30.5706" height="30.5706" fill="var(--fill-0, #D9D9D9)"/>
</mask>
<g mask="url(#mask0_0_7)">
<path id="handshake_2" d="M14.9057 25.402C15.0722 25.402 15.2428 25.3644 15.4175 25.2892C15.5922 25.2143 15.7335 25.1229 15.8413 25.0151L25.772 15.0844C26.0919 14.7645 26.3389 14.4371 26.513 14.1023C26.6869 13.7675 26.7738 13.4 26.7738 12.9998C26.7738 12.5948 26.6869 12.2016 26.513 11.8203C26.3389 11.439 26.0919 11.0908 25.772 10.7755L20.9953 5.99885C20.6801 5.67892 20.3563 5.44423 20.0241 5.29477C19.6916 5.14532 19.323 5.07059 18.9181 5.07059C18.518 5.07059 18.1464 5.14532 17.8036 5.29477C17.4605 5.44423 17.1372 5.67892 16.8336 5.99885L15.7238 7.10863L18.0803 9.47244C18.3334 9.72062 18.522 10.0032 18.6462 10.3201C18.7702 10.6369 18.8322 10.9585 18.8322 11.285C18.8322 11.9482 18.6154 12.4966 18.1819 12.9301C17.7484 13.3636 17.2001 13.5804 16.5371 13.5804C16.2104 13.5804 15.8915 13.5306 15.5805 13.431C15.2695 13.3315 14.9898 13.1575 14.7414 12.9091L12.304 10.4794L6.80483 15.9786C6.67597 16.1076 6.57927 16.2542 6.51473 16.4183C6.45019 16.5825 6.41792 16.7477 6.41792 16.9142C6.41792 17.2148 6.51431 17.4626 6.70707 17.6577C6.89962 17.8528 7.14621 17.9504 7.44682 17.9504C7.61326 17.9504 7.78384 17.9128 7.95856 17.8377C8.13328 17.7627 8.27456 17.6713 8.38241 17.5635L12.4193 13.5266L13.3208 14.4281L9.29125 18.465C9.16217 18.5939 9.06536 18.7403 9.00082 18.9044C8.9365 19.0685 8.90434 19.2339 8.90434 19.4006C8.90434 19.6848 9.00475 19.9274 9.20558 20.1282C9.40642 20.3291 9.64886 20.4295 9.93291 20.4295C10.0996 20.4295 10.2703 20.3919 10.445 20.3167C10.6197 20.2416 10.761 20.1501 10.8688 20.0422L15.1997 15.719L16.1012 16.6202L11.7777 20.9511C11.6649 21.0589 11.5723 21.2002 11.4997 21.3749C11.4268 21.5496 11.3904 21.7203 11.3904 21.887C11.3904 22.171 11.4908 22.4135 11.6917 22.6143C11.8927 22.8154 12.1353 22.9159 12.4193 22.9159C12.586 22.9159 12.7514 22.8836 12.9155 22.8191C13.0796 22.7545 13.226 22.6577 13.3549 22.5287L17.6858 18.2051L18.5873 19.1067L14.2564 23.4375C14.1276 23.5666 14.0309 23.7213 13.9663 23.9018C13.9018 24.0822 13.8695 24.2475 13.8695 24.3976C13.8695 24.6982 13.9752 24.9408 14.1867 25.1252C14.3981 25.3097 14.6378 25.402 14.9057 25.402ZM14.8984 26.6758C14.2435 26.6758 13.6829 26.4362 13.2167 25.957C12.7505 25.4777 12.546 24.886 12.6031 24.182C11.8813 24.1903 11.2802 23.9748 10.8 23.5356C10.32 23.0961 10.0922 22.4829 10.1167 21.6959C9.32967 21.704 8.70955 21.4791 8.2563 21.0211C7.80305 20.563 7.59691 19.9591 7.63788 19.2095C6.92903 19.2178 6.33619 19.0185 5.85937 18.6118C5.38256 18.2052 5.14415 17.6394 5.14415 16.9142C5.14415 16.5877 5.20741 16.2607 5.33394 15.9334C5.46047 15.6058 5.64782 15.3179 5.89599 15.0697L12.304 8.66901L15.5939 11.9589C15.7017 12.0716 15.8348 12.1642 15.9932 12.2369C16.1516 12.3095 16.3305 12.3458 16.5298 12.3458C16.8024 12.3458 17.0432 12.2507 17.2524 12.0604C17.4615 11.8702 17.566 11.6224 17.566 11.3169C17.566 11.1177 17.5296 10.939 17.4568 10.7806C17.3842 10.6222 17.2915 10.4891 17.1788 10.3813L12.7967 5.99885C12.4814 5.67892 12.1535 5.44423 11.813 5.29477C11.4725 5.14532 11.0998 5.07059 10.6949 5.07059C10.2948 5.07059 9.93143 5.14532 9.60491 5.29477C9.27819 5.44423 8.95476 5.67892 8.63461 5.99885L4.75692 9.88387C4.48433 10.1567 4.26397 10.4817 4.09583 10.8589C3.92748 11.2362 3.83842 11.6257 3.82865 12.0273C3.81889 12.3148 3.84341 12.5912 3.90221 12.8565C3.96102 13.1219 4.05411 13.3714 4.18149 13.6049L3.21629 14.5701C3.00229 14.2287 2.8349 13.8356 2.7141 13.3906C2.5933 12.9456 2.53779 12.4912 2.54755 12.0273C2.55732 11.4492 2.67323 10.8952 2.89529 10.3654C3.11736 9.83547 3.43506 9.36396 3.8484 8.95083L7.70157 5.09765C8.1457 4.6582 8.61561 4.33158 9.11133 4.1178C9.60682 3.90381 10.1429 3.79681 10.7195 3.79681C11.2959 3.79681 11.8278 3.90381 12.3152 4.1178C12.8026 4.33158 13.266 4.6582 13.7052 5.09765L14.815 6.20711L15.9248 5.09765C16.3689 4.6582 16.8347 4.33158 17.3221 4.1178C17.8095 3.90381 18.3415 3.79681 18.9181 3.79681C19.4945 3.79681 20.0306 3.90381 20.5263 4.1178C21.0218 4.33158 21.4893 4.6582 21.9287 5.09765L26.6735 9.84247C27.1128 10.2817 27.4516 10.7749 27.69 11.322C27.9284 11.8691 28.0476 12.4308 28.0476 13.0072C28.0476 13.5838 27.9284 14.1158 27.69 14.6032C27.4516 15.0906 27.1128 15.554 26.6735 15.9932L16.7428 25.9166C16.4783 26.1811 16.1904 26.3738 15.8792 26.4946C15.5682 26.6154 15.2413 26.6758 14.8984 26.6758Z" fill="var(--fill-0, #1C1B1F)"/>
</g>
</g>
</svg>
